<?xml version="1.0" standalone="no"?>
<!DOCTYPE svg PUBLIC "-//W3C//DTD SVG 20010904//EN"
 "http://www.w3.org/TR/2001/REC-SVG-20010904/DTD/svg10.dtd">
<svg version="1.0" xmlns="http://www.w3.org/2000/svg"
 width="263.000000pt" height="263.000000pt" viewBox="0 0 263.000000 263.000000"
 preserveAspectRatio="xMidYMid meet">
<metadata>
Created by potrace 1.16, written by Peter Selinger 2001-2019
</metadata>
<g transform="translate(0.000000,263.000000) scale(0.100000,-0.100000)"
fill="#000000" stroke="none">
<path d="M5 1310 c0 -685 1 -965 2 -623 2 343 2 903 0 1246 -1 342 -2 62 -2
-623z"/>
<path d="M1655 2315 c-33 -36 -61 -71 -63 -78 -1 -7 8 -44 22 -84 l24 -71 -64
-4 -64 -3 0 86 0 86 -127 35 c-71 20 -129 32 -131 28 -2 -6 123 -344 133 -358
3 -3 677 -4 680 0 4 4 145 358 145 364 0 9 -27 3 -146 -32 l-124 -37 0 -88 0
-89 -65 0 c-36 0 -65 4 -65 9 0 5 16 46 35 92 20 45 34 83 33 84 -2 1 -35 30
-75 64 -40 33 -76 61 -80 61 -5 0 -35 -29 -68 -65z"/>
<path d="M1390 1865 l0 -65 340 0 340 0 0 65 0 65 -340 0 -340 0 0 -65z"/>
<path d="M490 1774 c0 -9 63 -148 136 -302 35 -73 64 -135 64 -137 0 -3 18
-43 41 -90 28 -61 45 -85 56 -83 10 2 39 56 74 138 l58 135 438 5 438 5 60 28
c110 51 190 153 202 258 l6 49 -787 0 c-432 0 -786 -3 -786 -6z"/>
<path d="M1010 1271 c-11 -22 -33 -72 -49 -113 -16 -40 -64 -152 -106 -248
l-76 -175 50 -110 c27 -60 68 -150 90 -200 59 -133 76 -127 151 55 17 41 49
113 71 159 22 46 45 101 52 121 l11 38 156 4 c143 3 159 5 212 30 112 52 193
154 205 259 l6 49 -212 0 c-116 0 -211 4 -211 9 0 4 14 38 30 74 17 37 30 71
30 77 0 6 -69 10 -195 10 l-195 0 -20 -39z"/>
<path d="M652 3 c361 -2 955 -2 1320 0 365 1 69 2 -657 2 -726 0 -1024 -1
-663 -2z"/>
</g>
</svg>
